<svg width="333" height="88" viewBox="0 0 333 88" fill="none" xmlns="http://www.w3.org/2000/svg">
<path d="M0.159091 87.25V0.965908H27.0568V11.8068H14.2045V76.375H27.0568V87.25H0.159091ZM47.3835 79H31.5653L55.6676 9.18182H74.6903L98.7585 79H82.9403L65.4517 25.1364H64.9062L47.3835 79ZM46.3949 51.5568H83.7585V63.0795H46.3949V51.5568ZM106.412 79V70.2386L141.253 21.3523H106.344V9.18182H159.798V17.9432L124.923 66.8295H159.866V79H106.412ZM171.193 79V9.18182H185.955V39.9659H186.875L212 9.18182H229.693L203.784 40.4432L230 79H212.341L193.216 50.2955L185.955 59.1591V79H171.193ZM249.415 79H233.597L257.699 9.18182H276.722L300.79 79H284.972L267.483 25.1364H266.938L249.415 79ZM248.426 51.5568H285.79V63.0795H248.426V51.5568ZM332.239 0.965908V87.25H305.341V76.375H318.193V11.8068H305.341V0.965908H332.239Z" fill="white"/>
</svg>
